<?xml version="1.0" standalone="no"?><!DOCTYPE svg PUBLIC "-//W3C//DTD SVG 1.1//EN" "http://www.w3.org/Graphics/SVG/1.1/DTD/svg11.dtd"><svg t="1528681499379" class="icon" style="" viewBox="0 0 1024 1024" version="1.1" xmlns="http://www.w3.org/2000/svg" p-id="6642" xmlns:xlink="http://www.w3.org/1999/xlink" width="200" height="200"><defs><style type="text/css"></style></defs><path d="M797.275 966.132l-44.446-43.634 16.495-15.953 0-0.244-16.495 16.197L575.044 747.936l44.446-43.634 149.888 147.152 0.433-549.39 53.818-0.325-0.461 552.802 156.388-151.079 44.446 43.634L797.275 966.132zM37.463 112.118l785.841 0.515 0.542 53.818-785.001-0.515L37.463 112.118zM633.493 410.214 38.492 409.7l-1.11-53.818 595.678 0.515L633.493 410.214zM526.047 653.978l-487.799-0.515-0.921-53.818 488.367 0.515L526.047 653.978zM416.922 897.742l-378.917-0.515-0.704-53.818 379.351 0.515L416.922 897.742z" p-id="6643" fill="#13227a"></path></svg>