<?xml version="1.0" standalone="no"?>
<!DOCTYPE svg PUBLIC "-//W3C//DTD SVG 1.1//EN" "http://www.w3.org/Graphics/SVG/1.1/DTD/svg11.dtd" >
<!--
2013-9-30: Created.
-->
<svg>
<metadata>
Created by iconfont
</metadata>
<defs>

<font id="ml-collision" horiz-adv-x="1024" >
  <font-face
    font-family="ml-collision"
    font-weight="500"
    font-stretch="normal"
    units-per-em="1024"
    ascent="896"
    descent="-128"
  />
    <missing-glyph />
    
    <glyph glyph-name="x" unicode="x" horiz-adv-x="1001"
d="M281 543q-27 -1 -53 -1h-83q-18 0 -36.5 -6t-32.5 -18.5t-23 -32t-9 -45.5v-76h912v41q0 16 -0.5 30t-0.5 18q0 13 -5 29t-17 29.5t-31.5 22.5t-49.5 9h-133v-97h-438v97zM955 310v-52q0 -23 0.5 -52t0.5 -58t-10.5 -47.5t-26 -30t-33 -16t-31.5 -4.5q-14 -1 -29.5 -0.5
t-29.5 0.5h-32l-45 128h-439l-44 -128h-29h-34q-20 0 -45 1q-25 0 -41 9.5t-25.5 23t-13.5 29.5t-4 30v167h911zM163 247q-12 0 -21 -8.5t-9 -21.5t9 -21.5t21 -8.5q13 0 22 8.5t9 21.5t-9 21.5t-22 8.5zM316 123q-8 -26 -14 -48q-5 -19 -10.5 -37t-7.5 -25t-3 -15t1 -14.5
t9.5 -10.5t21.5 -4h37h67h81h80h64h36q23 0 34 12t2 38q-5 13 -9.5 30.5t-9.5 34.5q-5 19 -11 39h-368zM336 498v228q0 11 2.5 23t10 21.5t20.5 15.5t34 6h188q31 0 51.5 -14.5t20.5 -52.5v-227h-327z" />
    

    
    <glyph glyph-name="icon-moxingliebiao" unicode="&#58895;" d="M921.6-128H102.4a102.4 102.4 0 0 0-102.4 102.4V793.6a102.4 102.4 0 0 0 102.4 102.4h819.2a102.4 102.4 0 0 0 102.4-102.4v-819.2a102.4 102.4 0 0 0-102.4-102.4z m0 921.6H102.4v-102.4h819.2V793.6z m0-204.8H102.4v-614.4h819.2V588.8zM307.2 435.2H204.8V537.6h102.4v-102.4z m0-204.8H204.8v102.4h102.4v-102.4z m0-204.8H204.8v102.4h102.4v-102.4z m512 409.6H409.6V537.6h409.6v-102.4z m0-204.8H409.6v102.4h409.6v-102.4z m0-204.8H409.6v102.4h409.6v-102.4z"  horiz-adv-x="1024" />

    
    <glyph glyph-name="icon-quanping" unicode="&#58898;" d="M921.6-128h-256v102.4h184.832L614.4 209.664l71.68 71.68 235.52-234.4448V230.39999999999998h102.4v-256a102.4 102.4 0 0 0-102.4-102.4z m0 850.6368L686.592 486.4l-71.68 71.68L849.408 793.6H665.6V896h256a102.4 102.4 0 0 0 102.4-102.4v-256h-102.4V722.6368z m-583.168-235.52L102.4 721.92V537.6H0V793.6a102.4 102.4 0 0 0 102.4 102.4h256v-102.4H174.08l236.032-235.1104zM102.4 46.08000000000004l235.008 236.1344 71.68-71.68L174.08-25.600000000000023H358.4v-102.4H102.4a102.4 102.4 0 0 0-102.4 102.4v256h102.4v-184.32z"  horiz-adv-x="1024" />

    
    <glyph glyph-name="tongyongtubiao" unicode="&#58888;" d="M323.368421 60.63157899999999h646.736842v-161.684211H323.368421zM916.210526-128a103.477895 103.477895 0 0 0-31.258947 5.066105A54.352842 54.352842 0 0 0 862.315789-128H161.684211a107.789474 107.789474 0 0 0-107.789474 107.789474v134.736842H0v215.578947h53.894737V842.105263a53.894737 53.894737 0 0 0 53.894737 53.894737h754.526315a53.894737 53.894737 0 0 0 53.894737-53.894737v-754.526316a107.789474 107.789474 0 0 0 0-215.578947zM107.789474 276.21052599999996H53.894737v-107.789473h53.894737v107.789473z m0-107.789473h161.68421v107.789473H107.789474v-107.789473zM862.315789 842.105263H107.789474v-512h215.578947v-215.578947H107.789474v-134.736842a53.894737 53.894737 0 0 1 53.894737-53.894737h53.894736a53.894737 53.894737 0 0 1 0 107.789474v53.894736h646.736842V842.105263z m53.894737-808.421052H308.547368a105.391158 105.391158 0 0 0 0-107.789474H916.210526a53.894737 53.894737 0 0 1 0 107.789474z m-107.789473 215.578947H377.263158v53.894737h431.157895v-53.894737z m0-107.789474H377.263158v53.894737h431.157895v-53.894737zM161.684211 410.947368h646.736842v-53.894736H161.684211v53.894736zM161.684211 788.210526h350.315789v-53.894737H161.684211V788.210526zM80.842105 276.21052599999996h215.578948v-107.789473H80.842105zM350.315789 653.473684h646.736843v-134.736842H350.315789zM269.473684 464.842105V680.421053h754.526316v-215.578948H269.473684z m700.631579 161.684211H323.368421v-107.789474h646.736842v107.789474z m-538.947368-80.842105h-53.894737v53.894736h53.894737v-53.894736z m80.842105 0h-53.894737v53.894736h53.894737v-53.894736z m80.842105 0h-53.894737v53.894736h53.894737v-53.894736z"  horiz-adv-x="1024" />

    
    <glyph glyph-name="shijianjiansuo" unicode="&#58889;" d="M76.8 716.8h896v-153.6H76.8zM51.2 537.6h921.6v-614.4H51.2zM716.8 716.8V870.4h51.2v-153.6h-51.2zM256 870.4h51.2v-153.6h-51.2V870.4zM742.4 332.79999999999995v102.4h102.4v-102.4h-102.4z m-281.6-179.2h102.4v-102.4h-102.4v102.4z m0 281.6h102.4v-102.4h-102.4v102.4zM179.2 153.60000000000002h102.4v-102.4H179.2v102.4z m0 281.6h102.4v-102.4H179.2v102.4zM281.6 281.6H179.2a51.2 51.2 0 0 0-51.2 51.2v102.4a51.2 51.2 0 0 0 51.2 51.2h102.4a51.2 51.2 0 0 0 51.2-51.2v-102.4a51.2 51.2 0 0 0-51.2-51.2z m0 153.6H179.2v-102.4h102.4v102.4z m51.2-384a51.2 51.2 0 0 0-51.2-51.2H179.2a51.2 51.2 0 0 0-51.2 51.2v102.4a51.2 51.2 0 0 0 51.2 51.2h102.4a51.2 51.2 0 0 0 51.2-51.2v-102.4z m-51.2 102.4H179.2v-102.4h102.4v102.4z m691.2 384H51.2v-614.4h563.2v-51.2H51.2a51.2 51.2 0 0 0-51.2 51.2V742.4a51.2 51.2 0 0 0 51.2 51.2h128v-51.2H51.2v-153.6h921.6V742.4h-128V793.6h128a51.2 51.2 0 0 0 51.2-51.2v-460.8h-51.2V537.6z m-204.8 128h-51.2a51.2 51.2 0 0 0-51.2 51.2V844.8a51.2 51.2 0 0 0 51.2 51.2h51.2a51.2 51.2 0 0 0 51.2-51.2v-128a51.2 51.2 0 0 0-51.2-51.2z m0 179.2h-51.2v-128h51.2V844.8zM384 793.6h256v-51.2H384V793.6z m-76.8-128h-51.2a51.2 51.2 0 0 0-51.2 51.2V844.8a51.2 51.2 0 0 0 51.2 51.2h51.2a51.2 51.2 0 0 0 51.2-51.2v-128a51.2 51.2 0 0 0-51.2-51.2z m0 179.2h-51.2v-128h51.2V844.8z m256-563.2h-102.4a51.2 51.2 0 0 0-51.2 51.2v102.4a51.2 51.2 0 0 0 51.2 51.2h102.4a51.2 51.2 0 0 0 51.2-51.2v-102.4a51.2 51.2 0 0 0-51.2-51.2z m0 153.6h-102.4v-102.4h102.4v102.4z m51.2-384a51.2 51.2 0 0 0-51.2-51.2h-102.4a51.2 51.2 0 0 0-51.2 51.2v102.4a51.2 51.2 0 0 0 51.2 51.2h102.4a51.2 51.2 0 0 0 51.2-51.2v-102.4z m-51.2 102.4h-102.4v-102.4h102.4v102.4z m128 179.2v102.4a51.2 51.2 0 0 0 51.2 51.2h102.4a51.2 51.2 0 0 0 51.2-51.2v-102.4a51.2 51.2 0 0 0-51.2-51.2h-102.4a51.2 51.2 0 0 0-51.2 51.2z m153.6 102.4h-102.4v-102.4h102.4v102.4zM1024-91.80160000000001L987.8016-128l-79.8208 79.8208a154.368 154.368 0 1 0 36.1984 36.1984zM819.2 179.20000000000005a102.4 102.4 0 1 1 102.4-102.4 102.4 102.4 0 0 1-102.4 102.4z"  horiz-adv-x="1024" />

    
    <glyph glyph-name="guanxijiansuo" unicode="&#58907;" d="M884.363636 104.72727299999997a139.636364 139.636364 0 0 0 139.636364-139.636364H744.727273a139.636364 139.636364 0 0 0 139.636363 139.636364z m-11.636363 23.272727c-44.986182 0-81.454545 46.894545-81.454546 104.727273s36.468364 104.727273 81.454546 104.727272 81.454545-46.894545 81.454545-104.727272-36.468364-104.727273-81.454545-104.727273zM232.727273 104.72727299999997a139.636364 139.636364 0 0 0 139.636363-139.636364H93.090909a139.636364 139.636364 0 0 0 139.636364 139.636364z m-11.636364 23.272727C176.104727 128 139.636364 174.894545 139.636364 232.72727299999997S176.104727 337.45454500000005 221.090909 337.45454500000005s81.454545-46.894545 81.454546-104.727272S266.077091 128 221.090909 128zM397.498182-128a162.699636 162.699636 0 0 0 322.117818 0H397.498182zM558.545455 34.90909099999999c-51.409455 0-93.090909 62.510545-93.09091 139.636364s41.681455 139.636364 93.09091 139.636363 93.090909-62.510545 93.090909-139.636363-41.681455-139.636364-93.090909-139.636364zM302.545455 546.909091V826.181818h465.454545v-279.272727H302.545455z m349.090909 209.454545a93.090909 93.090909 0 1 1 93.090909-93.090909 93.090909 93.090909 0 0 1-93.090909 93.090909zM1024-34.90909099999999H697.856a232.517818 232.517818 0 0 0 41.611636-93.090909H284.532364a232.517818 232.517818 0 0 0 41.611636 93.090909H0v46.545455h6.306909a186.344727 186.344727 0 0 0 103.307636 123.019636A151.109818 151.109818 0 0 0 69.818182 244.36363600000004c0 77.125818 39.237818 139.636364 116.363636 139.636364s116.363636-62.510545 116.363637-139.636364a151.109818 151.109818 0 0 0-39.796364-109.707636 186.181818 186.181818 0 0 0 104.285091-127.325091 232.192 232.192 0 0 0 59.089454 34.280727A170.565818 170.565818 0 0 0 372.363636 174.54545499999995c0 89.972364 49.664 162.909091 139.636364 162.90909s139.636364-72.936727 139.636364-162.90909a170.565818 170.565818 0 0 0-53.76-132.933819 232.029091 232.029091 0 0 0 53.76-30.254545V11.636363999999958h6.306909a186.344727 186.344727 0 0 0 103.307636 123.019636A151.109818 151.109818 0 0 0 721.454545 244.36363600000004c0 77.125818 39.237818 139.636364 116.363637 139.636364s116.363636-62.510545 116.363636-139.636364a151.109818 151.109818 0 0 0-39.796363-109.707636A186.181818 186.181818 0 0 0 1024-34.90909099999999zM186.181818 337.45454500000005c-51.409455 0-69.818182-41.681455-69.818182-93.090909s18.408727-93.090909 69.818182-93.090909 69.818182 41.681455 69.818182 93.090909-18.408727 93.090909-69.818182 93.090909z m0-232.727272a139.217455 139.217455 0 0 1-131.095273-93.090909h262.190546A139.217455 139.217455 0 0 1 186.181818 104.72727299999997z m418.909091 69.818182c0 64.256-28.811636 116.363636-93.090909 116.363636s-93.090909-52.107636-93.090909-116.363636 28.811636-116.363636 93.090909-116.363637 93.090909 52.107636 93.090909 116.363637z m-93.090909-162.909091a185.227636 185.227636 0 0 1-160.395636-93.090909h320.791272A185.227636 185.227636 0 0 1 512 11.636363999999958z m325.818182 325.818181c-51.409455 0-69.818182-41.681455-69.818182-93.090909s18.408727-93.090909 69.818182-93.090909 69.818182 41.681455 69.818182 93.090909-18.408727 93.090909-69.818182 93.090909z m0-232.727272a139.217455 139.217455 0 0 1-131.095273-93.090909h262.190546A139.217455 139.217455 0 0 1 837.818182 104.72727299999997z m-23.272727 349.090909H535.272727v-93.090909h-46.545454v93.090909H209.454545v-46.545455H162.909091v93.090909h698.181818v-93.090909h-46.545454v46.545455z m-488.727273 209.454545V709.818182h139.636363v-46.545455h-139.636363z m0 139.636364h232.727273v-46.545455H325.818182V802.909091z m418.909091 46.545454H279.272727v-279.272727h279.272728v-46.545454H279.272727a46.545455 46.545455 0 0 0-46.545454 46.545454V849.454545a46.545455 46.545455 0 0 0 46.545454 46.545455h465.454546a46.545455 46.545455 0 0 0 46.545454-46.545455v-116.363636h-46.545454V849.454545zM794.088727 560.546909l-32.907636-32.907636-58.181818 58.181818a95.953455 95.953455 0 1 0 30.882909 34.909091zM651.636364 709.818182a46.545455 46.545455 0 1 1 46.545454-46.545455 46.545455 46.545455 0 0 1-46.545454 46.545455z"  horiz-adv-x="1024" />

    
    <glyph glyph-name="shitijiansuo" unicode="&#58908;" d="M727.059054 795.715993h50.142004l200.568015-626.775047-300.852023-100.284007zM752.130056 68.65693899999997c-125.931642 0-250.710019 75.213006-250.710019 75.213005l225.639017 752.130056h50.142004l225.639016-752.130056s-125.931642-75.213006-250.710018-75.213005z m0 777.201057l-175.497013-676.91705h350.994026zM350.994026 319.36695699999996l275.781021 75.213006v-350.994026l-275.781021-100.284008V319.36695699999996zM100.284007 369.508961l225.639017-50.142004v-350.994026l-225.639017 50.142004V369.508961zM0 18.514935000000037V419.650965l350.994026-100.284008v-401.13603z m300.852022 250.710018L50.142004 344.437959v-275.78102l250.710018-75.213006V269.224953zM300.852022-81.76907300000005V319.36695699999996l350.994026 100.284008v-401.13603z m300.852023 426.207032l-250.710019-75.213006v-275.78102l250.710019 50.142004V344.437959zM644.324748 410.249339l-25.071002-43.422975-294.03271 94.868671L36.052101 369.508961l-25.071002 43.422975 305.866223 97.551268 8.298501-14.365684 8.323573 14.440897zM363.529527 607.683479m-188.032514 0a188.032514 188.032514 0 1 1 376.065028 0 188.032514 188.032514 0 1 1-376.065028 0ZM325.923024 394.579963a250.710019 250.710019 0 1 0 250.710019 250.710018 250.710019 250.710019 0 0 0-250.710019-250.710018z m0 451.278033a200.568015 200.568015 0 1 1 200.568015-200.568015 200.568015 200.568015 0 0 1-200.568015 200.568015zM777.201058 168.94094600000005m-175.497013 0a175.497013 175.497013 0 1 1 350.994026 0 175.497013 175.497013 0 1 1-350.994026 0ZM1041.349133-92.17353800000001l-35.450396-35.450397-125.079229 125.079228a199.866027 199.866027 0 1 0 39.662325 31.26354zM927.627069 168.94094600000005a150.426011 150.426011 0 1 1-150.426011-150.426011 150.426011 150.426011 0 0 1 150.426011 150.426011z"  horiz-adv-x="1041" />

    
    <glyph glyph-name="chaji" unicode="&#58909;" d="M565.894737 815.157895h404.210526v-404.210527H565.894737zM107.789474 680.421053h269.473684v-269.473685H107.789474zM107.789474 195.368421h269.473684v-269.473684H107.789474zM592.842105 195.368421h269.473684v-269.473684H592.842105zM970.105263 357.052632H538.947368a53.894737 53.894737 0 0 0-53.894736 53.894736V842.105263a53.894737 53.894737 0 0 0 53.894736 53.894737h431.157895a53.894737 53.894737 0 0 0 53.894737-53.894737v-431.157895a53.894737 53.894737 0 0 0-53.894737-53.894736z m0 485.052631H538.947368v-431.157895h431.157895V842.105263z m-80.842105-242.526316H619.789474V653.473684h269.473684v-53.894737zM377.263158-128H53.894737a53.894737 53.894737 0 0 0-53.894737 53.894737V249.26315799999998a53.894737 53.894737 0 0 0 53.894737 53.894737h323.368421a53.894737 53.894737 0 0 0 53.894737-53.894737v-323.368421a53.894737 53.894737 0 0 0-53.894737-53.894737z m0 377.263158H53.894737v-323.368421h323.368421V249.26315799999998z m-53.894737-188.631579H107.789474v53.894737h215.578947v-53.894737z m-80.842105-80.842105H188.631579v53.894737h53.894737v-53.894737z m-53.894737 215.578947h53.894737v-53.894737H188.631579v53.894737z m188.631579 161.684211H53.894737a53.894737 53.894737 0 0 0-53.894737 53.894736V734.315789a53.894737 53.894737 0 0 0 53.894737 53.894737h323.368421a53.894737 53.894737 0 0 0 53.894737-53.894737v-323.368421a53.894737 53.894737 0 0 0-53.894737-53.894736z m0 377.263157H53.894737v-323.368421h323.368421V734.315789zM188.631579 680.421053h53.894737v-80.842106h80.842105v-53.894736H242.526316v-80.842106H188.631579v80.842106H107.789474v53.894736h80.842105V680.421053z m350.315789-377.263158h323.368421a53.894737 53.894737 0 0 0 53.894737-53.894737v-323.368421a53.894737 53.894737 0 0 0-53.894737-53.894737H538.947368a53.894737 53.894737 0 0 0-53.894736 53.894737V249.26315799999998a53.894737 53.894737 0 0 0 53.894736 53.894737z m0-377.263158h323.368421V249.26315799999998H538.947368v-323.368421z m53.894737 134.736842h215.578948v-53.894737h-215.578948v53.894737z m0 107.789474h215.578948v-53.894737h-215.578948v53.894737z"  horiz-adv-x="1024" />

    
    <glyph glyph-name="jiaoji" unicode="&#58910;" d="M512 336.06251199999997L892.713674 122.046512 512-91.96948799999996 131.286326 122.046512zM512-127.64279099999999L71.79907 122.046512 512 371.735814 952.20093 122.046512z m0 440.200931l-357.209302-190.511628 357.209302-190.511628 357.209302 190.511628zM512 621.8299529999999L916.527628 395.906977 512 169.98400000000004 107.496186 395.906977zM512 134.310698L71.79907 384 512 633.689302 952.20093 384z m0 440.20093l-357.209302-190.511628 357.209302-190.511628 357.209302 190.511628zM512 883.783442L916.527628 657.860465 512 431.937488 107.496186 657.860465zM512 396.264186L71.79907 645.953488 512 895.642791 952.20093 645.953488z m0 440.20093l-357.209302-190.511628 357.209302-190.511628 357.209302 190.511628zM512 634.046512l165.506977-94.065117-165.506977-94.065116-165.506977 94.065116zM742.590512 509.975814l-13.359628-19.717954L517.024744 610.2325579999999l1.476465 2.16707-215.111442-115.092837-12.859534 20.051349 215.349581 115.259534 12.788093-20.003721 11.716465 17.312745zM512 372.093023l165.506977-94.065116-165.506977-94.065116-165.506977 94.065116zM742.590512 248.02232600000002l-13.359628-19.717954L517.024744 348.27907000000005l1.476465 2.16707-215.111442-115.092838-12.859534 20.051349 215.349581 115.259535 12.788093-20.003721 11.716465 17.312744z"  horiz-adv-x="1024" />

    
    <glyph glyph-name="bingji" unicode="&#58911;" d="M568.888889 128v227.555556a715.491556 715.491556 0 0 1 254.179555-56.888889A738.446222 738.446222 0 0 1 1080.888889 355.555556v-227.555556H568.888889zM85.333333 839.111111h256v-113.777778H85.333333V839.111111zM568.888889 298.66666699999996V668.444444a715.463111 715.463111 0 0 1 254.179555-56.888888A738.446222 738.446222 0 0 1 1080.888889 668.444444v-369.777777H568.888889zM85.333333 71.11111100000005h256v-142.222222H85.333333v142.222222zM85.333333 668.444444h256v-113.777777H85.333333V668.444444zM568.888889-42.66666699999996v227.555556a715.491556 715.491556 0 0 1 254.179555-56.888889A738.446222 738.446222 0 0 1 1080.888889 184.88888899999995v-227.555556H568.888889zM85.333333 241.777778h256v-142.222222H85.333333v142.222222zM540.444444 725.333333a284.444444 113.77777800000001 0 1 1 568.888889 0 284.444444 113.77777800000001 0 1 1-568.888889 0ZM824.888889-99.55555600000002c-172.8 0-312.888889 63.687111-312.888889 142.222223V725.333333h56.888889v-682.666666c0-47.132444 114.602667-85.333333 256-85.333334s256 38.200889 256 85.333334V725.333333h56.888889v-682.666666c0-78.535111-140.088889-142.222222-312.888889-142.222223z m0 682.666667c-172.8 0-312.888889 63.687111-312.888889 142.222222s140.088889 142.222222 312.888889 142.222223 312.888889-63.687111 312.888889-142.222223-140.088889-142.222222-312.888889-142.222222z m0 227.555556c-141.397333 0-256-38.200889-256-85.333334s114.602667-85.333333 256-85.333333 256 38.200889 256 85.333333-114.602667 85.333333-256 85.333334z m-256-174.392889V554.666667c0-47.132444 114.602667-85.333333 256-85.333334s256 38.200889 256 85.333334V636.273778A103.793778 103.793778 0 0 0 1137.777778 554.666667c0-78.535111-140.088889-142.222222-312.888889-142.222223s-312.888889 63.687111-312.888889 142.222223a103.793778 103.793778 0 0 0 56.888889 81.607111z m0-170.666667V384c0-47.132444 114.602667-85.333333 256-85.333333s256 38.200889 256 85.333333v81.607111A103.793778 103.793778 0 0 0 1137.777778 384c0-78.535111-140.088889-142.222222-312.888889-142.222222s-312.888889 63.687111-312.888889 142.222222a103.793778 103.793778 0 0 0 56.888889 81.607111z m0-170.666667V213.33333300000004c0-47.132444 114.602667-85.333333 256-85.333333s256 38.200889 256 85.333333v81.607111A103.793778 103.793778 0 0 0 1137.777778 213.33333300000004c0-78.535111-140.088889-142.222222-312.888889-142.222222s-312.888889 63.687111-312.888889 142.222222a103.793778 103.793778 0 0 0 56.888889 81.607111zM227.555556 355.555556v-56.888889H170.666667v170.666666h56.888889v-56.888889h256v-56.888888H227.555556z m113.777777 142.222222H56.888889a56.888889 56.888889 0 0 0-56.888889 56.888889V839.111111a56.888889 56.888889 0 0 0 56.888889 56.888889h284.444444a56.888889 56.888889 0 0 0 56.888889-56.888889v-284.444444a56.888889 56.888889 0 0 0-56.888889-56.888889z m0 341.333333H56.888889v-113.777778h284.444444V839.111111z m0-170.666667H56.888889v-113.777777h284.444444V668.444444z m-199.111111-85.333333H85.333333V640h56.888889v-56.888889z m0 170.666667H85.333333V810.666667h56.888889v-56.888889zM56.888889 270.222222h284.444444a56.888889 56.888889 0 0 0 56.888889-56.888889v-284.444444a56.888889 56.888889 0 0 0-56.888889-56.888889H56.888889a56.888889 56.888889 0 0 0-56.888889 56.888889V213.33333300000004a56.888889 56.888889 0 0 0 56.888889 56.888889z m0-341.333333h284.444444v113.777778H56.888889v-113.777778z m0 170.666667h284.444444v113.777777H56.888889v-113.777777z m28.444444 85.333333h56.888889v-56.888889H85.333333v56.888889z m0-170.666667h56.888889v-56.888889H85.333333v56.888889z"  horiz-adv-x="1137" />

    
    <glyph glyph-name="guolv" unicode="&#58912;" d="M870.4-76.79999999999995v51.2h153.6v-51.2h-153.6zM128-25.600000000000023h588.8v-76.8H128v76.8z m128 291.584a101.1712 101.1712 0 0 1 164.992 15.616h2.816a101.5552 101.5552 0 0 0 176.384 0H614.4v-153.6H256v137.984z m0 15.616v-15.616a104.6016 104.6016 0 0 0-11.392 15.616H256zM777.984 0A459.2896 459.2896 0 0 1 716.8 671.3856000000001V870.4h256v-870.4h-194.816zM307.2 819.2h256l-51.2-153.6h-179.2zM972.8-128h-153.6v76.8h-51.2v-25.6a51.2 51.2 0 0 0-51.2-51.2H102.4a51.2 51.2 0 0 0-51.2 51.2v51.2a51.2 51.2 0 0 0 51.2 51.2h665.6v-7.1936a459.4688 459.4688 0 0 1-153.6 701.1328v91.136L563.2 640H230.4L153.6 896h486.4l-2.56-8.4736A50.8928 50.8928 0 0 0 665.6 896h307.2a51.2 51.2 0 0 0 51.2-51.2v-921.6a51.2 51.2 0 0 0-51.2-51.2z m-256 102.4H102.4v-51.2h614.4v51.2zM230.4 870.4l51.2-179.2h230.4l51.2 179.2H230.4z m742.4-25.6H665.6v-94.72A511.104 511.104 0 0 0 837.12 25.600000000000023H972.8V844.8z m0-870.4h-102.4v-51.2h102.4v51.2zM183.6032 599.3984l19.6096-19.6096c1.4336-0.512 2.9952-0.7424 4.4288-1.28l-0.6656-2.56 38.4-38.4H588.8l25.6 51.2h25.6v-102.4h-79.36c43.52-38.4 79.36-83.4816 79.36-128a156.16 156.16 0 0 0-1.0752-16.3328A36.5568 36.5568 0 0 0 640 332.79999999999995v-204.8a51.2 51.2 0 0 0-51.2-51.2H230.4a51.2 51.2 0 0 0-51.2 51.2v204.8a36.6336 36.6336 0 0 0 1.0752 9.2672A156.16 156.16 0 0 0 179.2 358.4c0 44.5184 36.1216 89.6 79.6928 128H230.4v15.0016l-10.5984-10.5984L175.4368 535.04A100.864 100.864 0 0 1 153.6 537.6a102.1184 102.1184 0 0 1-11.4944-203.648L128.7424 284.15999999999997A153.344 153.344 0 0 0 153.6 588.8a138.5728 138.5728 0 0 0 17.6384-1.7408zM230.4 358.4v-230.4h358.4v230.4c0 45.2608-50.4576 93.0816-97.8688 128h-162.2528C281.1648 451.4816 230.4 403.6608 230.4 358.4z"  horiz-adv-x="1024" />

    
    <glyph glyph-name="qingxi" unicode="&#58913;" d="M486.4 665.6V819.2h435.2v-153.6H486.4z m409.6-640H179.2V486.4a102.4 102.4 0 0 0 102.4 102.4h614.4v-563.2zM512 537.6a204.8 204.8 0 1 1 204.8-204.8 204.8 204.8 0 0 1-204.8 204.8zM588.8 102.39999999999998a152.832 152.832 0 0 0-85.5296 26.0352 204.8 204.8 0 0 0-191.6672 162.2784 127.1296 127.1296 0 0 1 164.1728 68.0448A151.552 151.552 0 0 0 588.8 409.6a153.6 153.6 0 0 0 0-307.2zM153.6 819.2h256v-128H153.6zM844.8-25.600000000000023v-51.2a51.2 51.2 0 0 0-51.2-51.2h-51.2a51.2 51.2 0 0 0-51.2 51.2v51.2H332.8v-51.2a51.2 51.2 0 0 0-51.2-51.2H230.4a51.2 51.2 0 0 0-51.2 51.2v51.2a102.4 102.4 0 0 0-102.4 102.4V844.8a51.2 51.2 0 0 0 51.2 51.2h768a51.2 51.2 0 0 0 51.2-51.2v-768a102.4 102.4 0 0 0-102.4-102.4z m-102.4-51.2h51.2v51.2h-51.2v-51.2zM230.4-76.79999999999995h51.2v51.2H230.4v-51.2z m179.2 921.6H128v-153.6h281.6V844.8z m486.4 0H460.8v-153.6h435.2V844.8z m0-204.8H128v-563.2a51.2 51.2 0 0 1 51.2-51.2h665.6a51.2 51.2 0 0 1 51.2 51.2V640zM512 76.79999999999995a256 256 0 1 0 256 256 256 256 0 0 0-256-256z m0 460.8a204.8 204.8 0 1 1 204.8-204.8 204.8 204.8 0 0 1-204.8 204.8z m76.8 204.8h-76.8V793.6h76.8v-51.2z m256 0h-204.8V793.6h204.8v-51.2zM204.8 819.2a51.2 51.2 0 1 0-51.2-51.2 51.2 51.2 0 0 0 51.2 51.2z m128 0a51.2 51.2 0 1 0-51.2-51.2 51.2 51.2 0 0 0 51.2 51.2z"  horiz-adv-x="1024" />

    
    <glyph glyph-name="jiedianyunhangchenggong" unicode="&#58914;" d="M512 384m-512 0a512 512 0 1 1 1024 0 512 512 0 1 1-1024 0ZM859.648 520.5504000000001l-325.8368-325.8368-72.3968-72.448L389.12 194.55999999999995l-181.0432 180.992 72.448 72.3968 180.992-180.992 325.8368 325.8368z"  horiz-adv-x="1024" />

    
    <glyph glyph-name="jiediandengdaiyunhang" unicode="&#58915;" d="M512 384m-512 0a512 512 0 1 1 1024 0 512 512 0 1 1-1024 0ZM768 281.6h-256a80.9472 80.9472 0 1 0-102.4 102.4V640a51.2 51.2 0 0 0 102.4 0v-256h256a51.2 51.2 0 0 0 0-102.4z"  horiz-adv-x="1024" />

    
    <glyph glyph-name="jiedianjinggao" unicode="&#58916;" d="M512 384m-512 0a512 512 0 1 1 1024 0 512 512 0 1 1-1024 0ZM563.2 332.79999999999995a51.2 51.2 0 0 0-102.4 0L409.6 588.8a102.4 102.4 0 0 0 204.8 0z m-51.2-153.6a51.2 51.2 0 1 0-51.2-51.2 51.2 51.2 0 0 0 51.2 51.2z"  horiz-adv-x="1024" />

    
    <glyph glyph-name="jiedianyunhangshibai" unicode="&#58917;" d="M512 384m-512 0a512 512 0 1 1 1024 0 512 512 0 1 1-1024 0ZM580.608 384l144.384-144.7936a51.2 51.2 0 0 0-72.192-72.448l-144.896 144.8448-144.896-144.8448a51.2 51.2 0 0 0-72.192 72.448L435.712 384 290.816 528.7936a51.2 51.2 0 0 0 72.192 72.448l144.896-144.8448 144.896 144.8448a51.2 51.2 0 0 0 72.192-72.448z"  horiz-adv-x="1024" />

    
    <glyph glyph-name="jiedianyunhangzhong" unicode="&#58918;" d="M512 384m-512 0a512 512 0 1 1 1024 0 512 512 0 1 1-1024 0ZM703.658667 171.05066699999998l-64 70.954666 128 141.994667-128 141.994667 64 70.954666 192-212.949333z m-256 0l-64 70.954666 128 141.994667-128 141.994667 64 70.954666 128-141.952 64-70.997333z m-256 0l-64 70.954666 128 141.994667-128 141.994667 64 70.954666 128-141.952L383.658667 384z"  horiz-adv-x="1024" />

    
    <glyph glyph-name="jieguoyulan" unicode="&#58919;" d="M921.6 793.6H102.4v-819.2h204.8v-102.4H102.4a102.4 102.4 0 0 0-102.4 102.4V793.6a102.4 102.4 0 0 0 102.4 102.4h819.2a102.4 102.4 0 0 0 102.4-102.4v-409.6h-102.4V793.6zM204.8 691.2h614.4v-102.4H204.8V691.2z m614.4-307.2H204.8V486.4h614.4v-102.4z m-153.6-51.2c198.144 0 358.4-103.168 358.4-230.4S863.744-128 665.6-128s-358.4 103.168-358.4 230.4S467.456 332.79999999999995 665.6 332.79999999999995z m0-358.4c141.312 0 256 57.2928 256 128S806.912 230.39999999999998 665.6 230.39999999999998s-256-57.2928-256-128 114.688-128 256-128z m102.4 153.6a102.4 102.4 0 1 0-102.4 102.4 102.4 102.4 0 0 0 102.4-102.4z"  horiz-adv-x="1024" />

    
    <glyph glyph-name="shanchu" unicode="&#58920;" d="M895.982721-127.97696099999996h-767.965442A125.639146 125.639146 0 0 0 0.023039-5.102489999999989V773.10249A125.639146 125.639146 0 0 0 128.017279 895.976961h767.965442a125.485553 125.485553 0 0 0 127.482263-122.874471v-778.20498A125.485553 125.485553 0 0 0 895.982721-127.97696099999996zM921.581569 742.383873a59.696514 59.696514 0 0 1-51.197696 51.197696H153.616127a59.696514 59.696514 0 0 1-51.197696-51.197696v-716.767746a59.696514 59.696514 0 0 1 51.197696-51.197696h716.767746a59.696514 59.696514 0 0 1 51.197696 51.197696V742.383873z m-192.503338-648.00924L512 311.606458l-217.078231-217.231825-72.700729 72.393542L439.811248 384 222.22104 601.2318250000001l72.700729 72.393542L512 456.393542l217.078231 217.231825 72.700729-72.393542L584.188752 384l217.590208-217.231825z"  horiz-adv-x="1024" />

    
    <glyph glyph-name="pengzhuang" unicode="&#58921;" d="M921.6-128H102.4a102.4 102.4 0 0 0-102.4 102.4V793.6a102.4 102.4 0 0 0 102.4 102.4h819.2a102.4 102.4 0 0 0 102.4-102.4v-819.2a102.4 102.4 0 0 0-102.4-102.4z m0 921.6H102.4v-819.2h819.2V793.6z m-256-307.2h153.6v-409.6H409.6v153.6H204.8V691.2h460.8v-204.8z m-153.6-307.2h204.8v204.8h-51.2v-153.6h-153.6v-51.2z m51.2 409.6H307.2v-256h102.4V486.4h153.6V588.8z m0-204.8h-51.2v-51.2h51.2v51.2z"  horiz-adv-x="1024" />

    
    <glyph glyph-name="jiansuo" unicode="&#58922;" d="M850.926936 71.60593300000005l132.664348-132.570591-66.097785-66.285296-130.789232 130.601721a235.889398 235.889398 0 1 0 60.941219 64.87896zM649.820912 333.46566600000006a140.633584 140.633584 0 1 1 140.633584-140.633584 140.633584 140.633584 0 0 1-140.633584 140.633584z m140.633584 187.511444a89.067936 89.067936 0 0 1-57.65977 43.596411 860.818165 860.818165 0 0 0-539.095404-0.609412A94.69328 94.69328 0 0 1 134.164439 520.97711c0-23.438931 126.101447-83.06757 288.767625-91.974363a327.535616 327.535616 0 0 1-65.160227-89.067937 718.309467 718.309467 0 0 0-164.072515 36.517854A94.69328 94.69328 0 0 1 134.164439 333.46566600000006c0-18.751144 79.692364-60.28493 193.605566-81.192456a236.076909 236.076909 0 0 1-2.343893-95.912104 676.635049 676.635049 0 0 0-131.72679 32.580114A94.69328 94.69328 0 0 1 134.164439 145.95422099999996c0-19.782457 90.005493-65.394616 215.169383-84.61454a327.582494 327.582494 0 0 1 70.316791-101.91247C206.356345-31.197217000000023 40.408716 48.82329200000004 40.408716 145.95422099999996V708.488555c0 103.553195 188.917781 187.511445 421.900751 187.511445s421.900751-83.958249 421.900751-187.511445v-286.47061a325.660502 325.660502 0 0 1-115.788317 76.082769A42.190075 42.190075 0 0 1 790.454496 520.97711zM462.309467 802.244278C280.892144 802.244278 134.164439 735.958982 134.164439 708.488555c0-25.360923 146.727706-93.755722 328.145028-93.755722s328.145028 67.972899 328.145029 93.755722c0 30.189343-146.727706 93.755722-328.145029 93.755723z"  horiz-adv-x="1024" />

    
    <glyph glyph-name="rizhi" unicode="&#58923;" d="M1005.056 179.20000000000005l8.704-8.7552-296.96-296.96V-128H102.4a102.4 102.4 0 0 0-102.4 102.4V691.2a102.4 102.4 0 0 0 102.4 102.4h153.6V896h102.4v-102.4h307.2V896h102.4v-102.4h153.6a102.4 102.4 0 0 0 102.4-102.4v-512h-18.944zM716.8 18.534400000000005L877.568 179.20000000000005H716.8v-160.6656zM921.6 691.2h-153.6v-102.4h-102.4V691.2H358.4v-102.4H256V691.2H102.4v-716.8h512v204.8a102.4 102.4 0 0 0 102.4 102.4h204.8V691.2zM256 486.4h512v-102.4H256V486.4z m256-307.2H256v102.4h256v-102.4z"  horiz-adv-x="1024" />

    
    <glyph glyph-name="xiugai" unicode="&#58924;" d="M921.6-128H102.4a102.4 102.4 0 0 0-102.4 102.4V793.6a102.4 102.4 0 0 0 102.4 102.4h307.2v-102.4H102.4v-819.2h819.2v307.2h102.4v-307.2a102.4 102.4 0 0 0-102.4-102.4z m-262.144 378.0096a102.4 102.4 0 0 0-144.896 0L369.664 394.8032a102.4 102.4 0 0 0 0 144.8448L695.808 865.4848a101.888 101.888 0 0 0 144.384 0l144.896-144.8448a102.4 102.4 0 0 0 0-144.7936zM442.368 467.2512l144.384-144.8448 72.704 72.3968-144.896 144.8448zM768 793.088l-181.248-181.0432 144.896-144.7936 181.248 180.992z"  horiz-adv-x="1024" />

    
    <glyph glyph-name="iguolv" unicode="&#58925;" d="M1137.462416 816.815366l0.568447-0.454758-0.568447-0.454757V781.85589h-39.222827L739.549682 470.290219v-516.37704l0.568446-0.511602-0.568446-0.341069V-127.65893200000005h-80.719441l-0.568447-0.341068V-127.65893200000005H625.860329v32.287776l-227.947152 227.719774 10.232041 24.215832H398.481623V470.290219L39.791716 781.85589H0.568889v34.106806l-0.568447 0.454757 0.568447 0.454758V895.545243h78.445653l0.568447 0.454757L80.151436 895.545243h977.728433l0.568447 0.454757 0.568447-0.454757H1137.462416v-78.729877zM211.462638 781.85589l301.276785-261.883424L490.569999 497.632508H512.170976v-217.089819l113.689353-163.314755V497.632508h21.600977l-22.169424 22.339958L926.568667 781.85589H211.462638z"  horiz-adv-x="1138" />

    
    <glyph glyph-name="yunhang" unicode="&#58926;" d="M921.6-128H102.4a102.4 102.4 0 0 0-102.4 102.4V793.6a102.4 102.4 0 0 0 102.4 102.4h819.2a102.4 102.4 0 0 0 102.4-102.4v-819.2a102.4 102.4 0 0 0-102.4-102.4z m0 921.6H102.4v-819.2h819.2V793.6zM409.6 661.6576L801.792 435.2l-27.648-47.616 28.16-48.0768L409.6 112.89599999999996V76.79999999999995H307.2V691.2h102.4v-29.5424z m270.336-274.3808L409.6 543.3856000000001v-312.32z"  horiz-adv-x="1024" />

    
    <glyph glyph-name="baocun" unicode="&#58927;" d="M921.6-128H358.4v26.2656l-26.112-25.856-331.776 332.1344 25.6 25.856H0V793.6a102.4 102.4 0 0 0 102.4 102.4h819.2a102.4 102.4 0 0 0 102.4-102.4v-819.2a102.4 102.4 0 0 0-102.4-102.4z m-409.6 102.4h204.8v102.4h-204.8v-102.4z m204.8 819.2H307.2v-307.2h409.6V793.6z m204.8 0h-102.4v-307.2a102.4 102.4 0 0 0-102.4-102.4H307.2a102.4 102.4 0 0 0-102.4 102.4V793.6H102.4v-537.6L384-25.600000000000023H409.6v102.4a102.4 102.4 0 0 0 102.4 102.4h204.8a102.4 102.4 0 0 0 102.4-102.4v-102.4h102.4V793.6z m-256-256h-102.4V742.4h102.4v-204.8z"  horiz-adv-x="1024" />

    
    <glyph glyph-name="fanhuishangji" unicode="&#58928;" d="M972.8-128H450.56v102.4h520.5504V793.6H450.56V896H972.8a102.4 102.4 0 0 0 102.4-102.4v-819.2a102.4 102.4 0 0 0-102.4-102.4zM762.88 435.2v-102.4H199.2704l168.96-166.0416-73.8304-72.3968-220.8256 217.2416L0 384l294.4512 289.6384 73.6256-72.3968L199.2704 435.2H762.88z"  horiz-adv-x="1075" />

    
    <glyph glyph-name="gongxiang" unicode="&#58929;" d="M1024.069632 76.79999999999995a203.9808 203.9808 0 0 0-365.056-126.0032 404.992 404.992 0 0 0-293.888 0 204.0832 204.0832 0 1 0-255.488 306.3296 408.064 408.064 0 0 0 198.144 430.08c0 1.28-0.512 2.4576-0.512 3.7888a204.8 204.8 0 0 0 409.6 0c0-1.3312-0.512-2.5088-0.512-3.7888a408.064 408.064 0 0 0 198.144-430.08A203.7248 203.7248 0 0 0 1024.069632 76.79999999999995zM102.469632 76.79999999999995a102.4 102.4 0 1 1 102.4 102.4 102.4 102.4 0 0 1-102.4-102.4z m409.6 716.8a102.4 102.4 0 1 1 102.4-102.4 102.4 102.4 0 0 1-102.4 102.4z m174.592-208.3328a203.5712 203.5712 0 0 0-349.184 0A307.2 307.2 0 0 1 204.869632 332.79999999999995a343.04 343.04 0 0 1 5.12-51.712A204.8 204.8 0 0 0 409.669632 76.79999999999995a210.944 210.944 0 0 0-3.072-31.3856 290.6112 290.6112 0 0 1 210.944 0A210.944 210.944 0 0 0 614.469632 76.79999999999995a204.8 204.8 0 0 0 199.68 204.288A343.04 343.04 0 0 1 819.269632 332.79999999999995a307.2 307.2 0 0 1-132.608 252.4672zM819.269632 179.20000000000005a102.4 102.4 0 1 1 102.4-102.4 102.4 102.4 0 0 1-102.4 102.4z"  horiz-adv-x="1024" />

    
    <glyph glyph-name="gengxinshijian" unicode="&#58930;" d="M511.999744 640.000128a51.199974 51.199974 0 0 0 51.199974-51.199974v-153.599924h153.599924a51.199974 51.199974 0 0 0 0-102.399948h-153.599924a80.94716 80.94716 0 1 0-102.399948 102.399948V588.800154a51.199974 51.199974 0 0 0 51.199974 51.199974z m0-767.999616a511.999744 511.999744 0 0 0-509.439745 460.79977h103.372748a412.364594 412.364594 0 1 1 53.196773 255.999872H255.999872a51.199974 51.199974 0 0 0 0-102.399949H10.239995c1.075199 5.427197 2.713599 10.700795 3.993598 16.076792a51.199974 51.199974 0 0 0-10.239995 15.820792A49.407975 49.407975 0 0 0 0 537.600179V742.400077a51.199974 51.199974 0 0 0 102.399949 0v-53.964773A511.334144 511.334144 0 1 0 511.999744-127.99948800000004z"  horiz-adv-x="1024" />

    
    <glyph glyph-name="chuangjianshijian" unicode="&#58931;" d="M512-128a512 512 0 1 0 512 512 512 512 0 0 0-512-512z m0 921.6a409.6 409.6 0 1 1 409.6-409.6 409.6 409.6 0 0 1-409.6 409.6z m256-460.8h-204.8a80.9472 80.9472 0 1 0-102.4 102.4V640a51.2 51.2 0 0 0 102.4 0v-204.8h204.8a51.2 51.2 0 0 0 0-102.4z"  horiz-adv-x="1024" />

    
    <glyph glyph-name="bianji" unicode="&#58932;" d="M533.157448 331.88667399999997L459.989007 405.157448l490.689052 490.842552 73.168441-73.270774zM102.333483-25.666517h716.334383V537.167641h102.333483v-562.834158a102.333483 102.333483 0 0 0-102.333483-102.333483H102.333483a102.333483 102.333483 0 0 0-102.333483 102.333483V690.667866a102.333483 102.333483 0 0 0 102.333483 102.333483h562.834158v-102.333483H102.333483v-716.334383z"  horiz-adv-x="1024" />

    
    <glyph glyph-name="jiediansousuo" unicode="&#58933;" d="M409.6 281.6a102.4 102.4 0 1 0-102.4 102.4 102.4 102.4 0 0 0 102.4-102.4z m0 409.6a102.4 102.4 0 1 0-102.4-102.4 102.4 102.4 0 0 0 102.4 102.4z m512 102.4H102.4v-819.2h409.6v-102.4H102.4a102.4 102.4 0 0 0-102.4 102.4V793.6a102.4 102.4 0 0 0 102.4 102.4h819.2a102.4 102.4 0 0 0 102.4-102.4v-409.6h-102.4V793.6z m-307.2-204.8a102.4 102.4 0 1 0 102.4-102.4 102.4 102.4 0 0 0-102.4 102.4z m102.4-204.8a204.8 204.8 0 0 0 204.8-204.8 202.1888 202.1888 0 0 0-28.672-103.168L1024-55.19359999999995l-72.192-72.3968-131.584 131.1232A201.4208 201.4208 0 0 0 716.8-25.600000000000023a204.8 204.8 0 0 0 0 409.6z m0-307.2a102.4 102.4 0 1 1-102.4 102.4 102.4 102.4 0 0 1 102.4-102.4z"  horiz-adv-x="1024" />

    
    <glyph glyph-name="moxingmingcheng" unicode="&#58934;" d="M921.6-128H102.4a102.4 102.4 0 0 0-102.4 102.4V793.6a102.4 102.4 0 0 0 102.4 102.4h819.2a102.4 102.4 0 0 0 102.4-102.4v-819.2a102.4 102.4 0 0 0-102.4-102.4z m0 921.6H102.4v-819.2h819.2V793.6z m-409.6-409.6H204.8V691.2h307.2v-307.2zM409.6 588.8H307.2v-102.4h102.4V588.8z m409.6-358.4H204.8v102.4h614.4v-102.4z m0-153.6H204.8v102.4h614.4v-102.4z m-204.8 409.6h204.8v-102.4h-204.8V486.4z m0 153.6h204.8v-102.4h-204.8V640z"  horiz-adv-x="1024" />

    
    <glyph glyph-name="kelong" unicode="&#58935;" d="M921.6-128H409.6a102.4 102.4 0 0 0-102.4 102.4v102.4H102.4a102.4 102.4 0 0 0-102.4 102.4V793.6a102.4 102.4 0 0 0 102.4 102.4h614.4a102.4 102.4 0 0 0 102.4-102.4v-204.8h102.4a102.4 102.4 0 0 0 102.4-102.4v-512a102.4 102.4 0 0 0-102.4-102.4zM716.8 793.6H102.4v-614.4h204.8V486.4a102.4 102.4 0 0 0 102.4 102.4h307.2V793.6z m204.8-307.2H409.6v-512h512V486.4z m-307.2-102.4h102.4v-102.4h102.4v-102.4h-102.4v-102.4h-102.4v102.4h-102.4v102.4h102.4v102.4z"  horiz-adv-x="1024" />

    
    <glyph glyph-name="qingkong" unicode="&#58937;" d="M870.4 588.8v-614.4a102.4 102.4 0 0 0-102.4-102.4H256a102.4 102.4 0 0 0-102.4 102.4V588.8H0V691.2h256V793.6a102.4 102.4 0 0 0 102.4 102.4h307.2a102.4 102.4 0 0 0 102.4-102.4v-102.4h256v-102.4h-153.6z m-204.8 204.8H358.4v-102.4h307.2V793.6zM256 588.8v-614.4h512V588.8H256z m307.2-512V486.4h102.4v-409.6h-102.4zM358.4 486.4h102.4v-409.6H358.4V486.4z"  horiz-adv-x="1024" />

    
    <glyph glyph-name="quxiaogongxiang" unicode="&#58938;" d="M1023.216207-59.634401000000025l-68.058568-68.365599L819.040504 8.73119799999995l-136.117136-136.731198-68.058568 68.365599 136.117136 136.731198-136.117136 136.731198 68.058568 68.365599L819.040504 145.462396l136.117135 136.731198 68.058568-68.365599L887.099071 77.25031200000001zM686.505398 585.438009a203.459297 203.459297 0 0 0-348.992054 0A307.031133 307.031133 0 0 1 204.978238 333.10959a342.851432 342.851432 0 0 1 5.117185-51.683574A204.687422 204.687422 0 0 0 409.66566 77.25031200000001a210.828045 210.828045 0 0 0-3.070311-31.368347A301.453401 301.453401 0 0 1 512.009371 26.078456999999958v-102.343711a408.249063 408.249063 0 0 0-146.863225 27.58163 203.971016 203.971016 0 1 0-255.347559 306.161211 407.839688 407.839688 0 0 0 198.03508 429.843586c0 1.279296-0.511719 2.456249-0.511718 3.786718a204.687422 204.687422 0 0 0 409.374844 0c0-1.330468-0.511719-2.507421-0.511719-3.786718a409.374844 409.374844 0 0 0 201.617111-303.244415h-103.367148a308.412773 308.412773 0 0 1-127.929639 201.361251zM102.634527 77.25031200000001a102.343711 102.343711 0 1 1 102.343711 102.343711 102.343711 102.343711 0 0 1-102.343711-102.343711z m409.374844 716.405977a102.343711 102.343711 0 1 1 102.343711-102.343711 102.343711 102.343711 0 0 1-102.343711 102.343711z"  horiz-adv-x="1024" />

    
    <glyph glyph-name="shangchuan" unicode="&#58939;" d="M921.6-128H307.2a102.4 102.4 0 0 0-102.4 102.4v102.4h102.4v-102.4h614.4V486.4h-307.2V793.6H307.2v-409.6H204.8V793.6a102.4 102.4 0 0 0 102.4 102.4h409.6v-18.6368L1005.3632 588.8H1024v-614.4a102.4 102.4 0 0 0-102.4-102.4zM716.8 732.5696V588.8h143.7696z m-367.2064-357.376l72.448 72.448 144.7936-144.8448L639.232 230.39999999999998l-217.1904-217.2416-72.448 72.448L443.2384 179.20000000000005H0v102.4h443.2384z"  horiz-adv-x="1024" />

    
    <glyph glyph-name="shujuyuanbiao" unicode="&#58940;" d="M921.6-128H409.6a102.4 102.4 0 0 0-102.4 102.4v102.4H102.4a102.4 102.4 0 0 0-102.4 102.4V793.6a102.4 102.4 0 0 0 102.4 102.4h512a102.4 102.4 0 0 0 102.4-102.4v-102.4h204.8a102.4 102.4 0 0 0 102.4-102.4v-614.4a102.4 102.4 0 0 0-102.4-102.4zM614.4 793.6H102.4v-614.4h204.8v102.4H204.8v102.4h102.4V435.2H204.8V537.6h102.4V588.8H204.8V691.2h409.6V793.6z m307.2-204.8H409.6v-614.4h512V588.8z m-102.4-204.8h-307.2V486.4h307.2v-102.4z m0-153.6h-307.2v102.4h307.2v-102.4z m0-153.6h-307.2v102.4h307.2v-102.4z"  horiz-adv-x="1024" />

    
    <glyph glyph-name="tingzhi" unicode="&#58941;" d="M512-128a512 512 0 1 0 512 512 512 512 0 0 0-512-512z m0 921.6a409.6 409.6 0 1 1 409.6-409.6 409.6 409.6 0 0 1-409.6 409.6z m51.2-204.8h102.4v-409.6h-102.4V588.8zM358.4 588.8h102.4v-409.6H358.4V588.8z"  horiz-adv-x="1024" />

    
    <glyph glyph-name="weiyunhang" unicode="&#58942;" d="M512-128a512 512 0 1 0 512 512 512 512 0 0 0-512-512z m0 921.6a409.6 409.6 0 1 1 409.6-409.6 409.6 409.6 0 0 1-409.6 409.6z m204.8-460.8H307.2a51.2 51.2 0 0 0 0 102.4h409.6a51.2 51.2 0 0 0 0-102.4z"  horiz-adv-x="1024" />

    
    <glyph glyph-name="yunhangchenggong" unicode="&#58943;" d="M512-128a512 512 0 1 0 512 512 512 512 0 0 0-512-512z m0 921.6a409.6 409.6 0 1 1 409.6-409.6 409.6 409.6 0 0 1-409.6 409.6z m-36.1984-611.84a51.2 51.2 0 0 0-72.3968 0L258.56 326.60479999999995a51.2 51.2 0 0 0 72.3968 72.3968l108.6464-108.5952 253.3888 253.3888a51.2 51.2 0 1 0 72.448-72.3968z"  horiz-adv-x="1024" />

    
    <glyph glyph-name="yunhangshibai" unicode="&#58944;" d="M512-128a512 512 0 1 0 512 512 512 512 0 0 0-512-512z m0 921.6a409.6 409.6 0 1 1 409.6-409.6 409.6 409.6 0 0 1-409.6 409.6z m144.7936-626.8416L512 311.6032l-144.7936-144.8448-72.448 72.448L439.6032 384 294.7584 528.7936l72.448 72.448L512 456.3968l144.7936 144.8448 72.448-72.448L584.3968 384l144.8448-144.7936z"  horiz-adv-x="1024" />

    
    <glyph glyph-name="zhengzaiyunhang" unicode="&#58945;" d="M512-128a512 512 0 1 0 512 512 512 512 0 0 0-512-512z m0 921.6a409.6 409.6 0 1 1 409.6-409.6 409.6 409.6 0 0 1-409.6 409.6z m204.8-554.3936l-51.2 51.2L759.1936 384 665.6 477.5936l51.2 51.2L861.5936 384z m-307.2 51.2L503.1936 384 409.6 477.5936l51.2 51.2L605.5936 384 460.8 239.20640000000003z m-256 0L247.1936 384 153.6 477.5936l51.2 51.2L349.5936 384 204.8 239.20640000000003z"  horiz-adv-x="1024" />

    
    <glyph glyph-name="search" unicode="&#58906;" d="M991.742412-111.55221100000006c-37.288465-37.850346-72.022926-1.123762-109.311391 36.726584l-226.284797 229.451762a411.09256 411.09256 0 1 0 80.195741 78.407938l255.400447-258.618494c37.288465-37.594946 37.288465-48.117444 0-85.96779zM414.0266 789.858128a306.480537 306.480537 0 1 1 306.480537-306.480537 306.480537 306.480537 0 0 1-306.480537 306.480537z"  horiz-adv-x="1024" />

    
    <glyph glyph-name="nickname" unicode="&#58883;" d="M511.208904 280.967123a408.967123 408.967123 0 0 1-408.967123-408.967123H0a511.208904 511.208904 0 0 0 323.135148 475.015314 306.725343 306.725343 0 1 0 376.147512 0A511.208904 511.208904 0 0 0 1022.417808-128h-102.24178a408.967123 408.967123 0 0 1-408.967124 408.967123z m204.483562 306.725343a204.483562 204.483562 0 1 1-204.483562-204.483562 204.483562 204.483562 0 0 1 204.483562 204.483562z"  horiz-adv-x="1024" />

    
    <glyph glyph-name="logout" unicode="&#58884;" d="M512.025347-127.92653199999995A439.707275 439.707275 0 0 0 369.497007 728.125126V569.066437a294.974889 294.974889 0 1 1 287.260726 2.497919V727.390443A439.707275 439.707275 0 0 0 512.025347-127.92653199999995zM436.353084 896h146.936432v-580.839719h-146.936432V896z"  horiz-adv-x="1024" />

    
    <glyph glyph-name="password" unicode="&#58885;" d="M870.4-128H153.6a102.4 102.4 0 0 0-102.4 102.4v409.6a102.4 102.4 0 0 0 102.4 102.4h51.2V588.8a307.2 307.2 0 0 0 614.4 0v-102.4h51.2a102.4 102.4 0 0 0 102.4-102.4v-409.6a102.4 102.4 0 0 0-102.4-102.4zM716.8 588.8a204.8 204.8 0 0 1-409.6 0v-102.4h409.6V588.8z m153.6-204.8H153.6v-409.6h716.8v409.6z m-358.4-102.4a51.2 51.2 0 0 0 51.2-51.2v-102.4a51.2 51.2 0 0 0-102.4 0v102.4a51.2 51.2 0 0 0 51.2 51.2z"  horiz-adv-x="1024" />

    


  </font>
</defs>
</svg>
